# xmcd
#
# Track frame offsets:
#	150
#	5993
#	24692
#	43038
#	65336
#	85980
#	88476
#	106017
#	124536
#	142923
#	167874
#	189535
#	192249
#	212842
#	233755
#
# Disc length: 3400 seconds
#
# Revision: 0
# Processed by: cddbd v1.4PL0 Copyright (c) Steve Scherf et al.
# Submitted via: audiograbber 1.80
#
DISCID=d00d460f
DTITLE=Prophet Jones - Prophet Jones
DYEAR=1900
DGENRE=
TTITLE0=Come Inside (Interlude)
TTITLE1=Woof
TTITLE2=I Know You Wanna
TTITLE3=Lifetime
TTITLE4=You Gotta Believe
TTITLE5=Prophet Jones (Interlude)
TTITLE6=All I Do
TTITLE7=Doin Me
TTITLE8=Hate On Me
TTITLE9=Cry Together
TTITLE10=You Cant
TTITLE11=Can I Take You Home (Interlude)
TTITLE12=Can I Take You Home
TTITLE13=I Cant Deny
TTITLE14=Come Inside
EXTD=
EXTT0=
EXTT1=
EXTT2=
EXTT3=
EXTT4=
EXTT5=
EXTT6=
EXTT7=
EXTT8=
EXTT9=
EXTT10=
EXTT11=
EXTT12=
EXTT13=
EXTT14=
PLAYORDER=
